<?xml version="1.0" encoding="UTF-8"?>
<svg id="Layer_2" data-name="Layer 2" xmlns="http://www.w3.org/2000/svg" xmlns:xlink="http://www.w3.org/1999/xlink" viewBox="0 0 5559.48 6144.73">
  <defs>
    <style>
      .cls-1 {
        fill: url(#linear-gradient);
        stroke-width: 0px;
      }
    </style>
    <linearGradient id="linear-gradient" x1="-1424.75" y1="5914.19" x2="6756.18" y2="1140.21" gradientTransform="translate(6548.83 6039.37) rotate(-85.13) scale(1 -1)" gradientUnits="userSpaceOnUse">
      <stop offset="0" stop-color="#fff" stop-opacity="0"/>
      <stop offset=".14" stop-color="#9e9e9e" stop-opacity=".38"/>
      <stop offset="1" stop-color="#000"/>
    </linearGradient>
  </defs>
  <g id="Layer_1-2" data-name="Layer 1">
    <path class="cls-1" d="m4691.73,5877.1c-43.19,275.39-394.79,363.54-563.26,144.05-2.42-3.15-4.48-6.56-6.15-10.17l-656.67-1417.53c-1.35-2.92-2.94-5.72-4.81-8.33-28.98-40.58-46.67-88.16-51.2-137.87-4.61-50.52,4.54-101.33,26.45-147.05.59-1.23,1.14-2.48,1.63-3.75l769.4-1980.99c.38-.99.82-1.96,1.24-2.94,46.74-108.45-445.86-477.26-532.87-397.83-.77.71-1.53,1.42-2.33,2.1l-1677.62,1424.42c-1.04.88-2.03,1.8-3,2.76-36.05,35.68-80.63,62.23-129.9,74.39-48.52,11.96-99.78,9.51-147.67-4.76-2.96-.88-6.01-1.48-9.08-1.84l-1478.79-175.33c-3.64-.43-7.22-1.24-10.7-2.39-263.07-87.22-294.71-448.78-48.42-579.64L5094.49,37.63c230.35-122.25,501.36,70.83,460.96,328.4l-863.71,5511.08Z"/>
  </g>
</svg>