<svg width="17" height="18" viewBox="0 0 17 18" fill="none" xmlns="http://www.w3.org/2000/svg">
<path d="M15.3773 16.989C15.7954 17.407 16.4406 16.7618 16.0226 16.3528L12.6145 12.9356C13.81 11.6128 14.4708 9.8927 14.4685 8.10974C14.4685 4.12 11.224 0.875488 7.23425 0.875488C3.24451 0.875488 0 4.12 0 8.10974C0 12.0995 3.24451 15.344 7.23425 15.344C9.03372 15.344 10.6969 14.6805 11.9692 13.5809L15.3773 16.989ZM0.907917 8.10974C0.907917 4.61985 3.75254 1.78431 7.23334 1.78431C10.7232 1.78431 13.5588 4.61985 13.5588 8.10974C13.5588 11.5996 10.7232 14.4352 7.23334 14.4352C3.75254 14.4352 0.907917 11.5996 0.907917 8.10974Z" fill="#595959"/>
</svg>
